# xmcd CD database file generated by Grip 2.95
# 
# Track frame offsets:
#       150
#       10492
#       21785
#       30792
#       43270
#       52540
#       62627
#       78797
#       90487
#       101147
#       111322
#       124862
#       138997
#       149545
#       163080
#       175087
#       186077
#       196492
#       207540
#       219895
# 
# Disc length: 3090 seconds
# 
# Revision: 3
# Processed by: cddbd v1.4b41PL1 Copyright (c) Steve Scherf et al.
# Submitted via: Grip 2.95
# 
DISCID=110c1014
DTITLE=Buck Owens - Streets of Bakerfield - CD 2 of 2
DYEAR=1900
DGENRE=
TTITLE0=Think Of Me
TTITLE1=Open Up Your Heart
TTITLE2=Sam's Place
TTITLE3=Your Tender Loving Care
TTITLE4=It Takes People Like You (To Make People Like Me)
TTITLE5=How Long Will My Baby Be Gone
TTITLE6=Sweet Rosie Jones
TTITLE7=I've Got You On My Mind Again
TTITLE8=Who's Gonna Mow Your Grass
TTITLE9=Johnny B. Goode
TTITLE10=Tall Dark Stranger
TTITLE11=Big In Vegas
TTITLE12=The Kansas City Song
TTITLE13=I Wouldn't Live In New York (If They Gave Me The Whole Dang Town)
TTITLE14=Bridge Over Troubled Water
TTITLE15=Ruby (Are You Mad)
TTITLE16=Rollin' In My Sweet Baby's Arms
TTITLE17=I'll Still Be Waiting For You
TTITLE18=Made In Japan
TTITLE19=Streets Of Bakersfield
EXTD=
EXTT0=
EXTT1=
EXTT2=
EXTT3=
EXTT4=
EXTT5=
EXTT6=
EXTT7=
EXTT8=
EXTT9=
EXTT10=
EXTT11=
EXTT12=
EXTT13=
EXTT14=
EXTT15=
EXTT16=
EXTT17=
EXTT18=
EXTT19=
PLAYORDER=
